<svg width="1120" height="628" viewBox="0 0 1120 628" fill="none"
    xmlns="http://www.w3.org/2000/svg">
    <path d="M0 16C0 7.16344 7.16344 0 16 0H1104C1112.84 0 1120 7.16344 1120 16V612C1120 620.837 1112.84 628 1104 628H16C7.16341 628 0 620.837 0 612V16Z" fill="url(#paint0_linear_772_3919)"/>
    <g opacity="0.04">
        <mask id="mask0_772_3919" style="mask-type:alpha" maskUnits="userSpaceOnUse" x="0" y="0" width="1120" height="628">
            <path d="M0 16C0 7.16344 7.16344 0 16 0H1104C1112.84 0 1120 7.16344 1120 16V612C1120 620.837 1112.84 628 1104 628H16C7.16341 628 0 620.837 0 612V16Z" fill="url(#paint1_linear_772_3919)"/>
        </mask>
        <g mask="url(#mask0_772_3919)">
            <path opacity="0.56" d="M2.90918 321.944L143.309 181.69L166.879 204.823L73.182 298.52L143.746 368.793L167.461 345.514L120.031 298.52L354.419 64.1317L220.42 -69.5757" stroke="white" stroke-width="5.81969" stroke-miterlimit="10" stroke-linecap="round" stroke-linejoin="round"/>
            <path opacity="0.56" d="M2.90918 -6.14106L96.7517 87.556L167.461 17.7197L143.455 -6.14106L96.6062 40.7075L49.7577 -6.14106L114.211 -69.5757" stroke="white" stroke-width="5.81969" stroke-miterlimit="10" stroke-linecap="round" stroke-linejoin="round"/>
            <path opacity="0.56" d="M131.233 -65.211L260.576 64.1317L213.728 110.98L237.297 134.695L308.152 64.8592L174.299 -69.5757" stroke="white" stroke-width="5.81969" stroke-miterlimit="10" stroke-linecap="round" stroke-linejoin="round"/>
            <path d="M699.963 -88.7807L829.451 40.7075L782.603 87.556L806.172 111.126L877.027 41.2894L743.174 -93" stroke="white" stroke-width="5.81969" stroke-miterlimit="10" stroke-linecap="round" stroke-linejoin="round"/>
            <path opacity="0.56" d="M314.99 -69.5757L424.546 40.562L401.704 64.2772L424.546 87.7015L494.964 17.2832L448.116 -29.5653L488.563 -69.5757" stroke="white" stroke-width="5.81969" stroke-miterlimit="10" stroke-linecap="round" stroke-linejoin="round"/>
            <path opacity="0.56" d="M3.05371 87.7015L96.8963 181.69L73.181 204.823L50.0477 181.108L3.05371 228.247" stroke="white" stroke-width="5.81969" stroke-miterlimit="10" stroke-linecap="round" stroke-linejoin="round"/>
            <path opacity="0.56" d="M2.90918 40.7075L96.8972 134.695L190.303 40.7075L213.728 64.1317L143.6 134.695L190.594 181.69L213.873 157.974L190.449 134.695" stroke="white" stroke-width="5.81969" stroke-miterlimit="10" stroke-linecap="round" stroke-linejoin="round"/>
            <path opacity="0.56" d="M399.667 580.63L493.51 674.618L469.794 697.605L446.661 674.036L399.667 721.175" stroke="white" stroke-width="5.81969" stroke-miterlimit="10" stroke-linecap="round" stroke-linejoin="round"/>
            <path opacity="0.56" d="M399.521 533.635L493.509 627.478L586.915 533.635L610.339 557.06L540.212 627.478L587.206 674.618L610.484 650.902L587.206 627.478" stroke="white" stroke-width="5.81969" stroke-miterlimit="10" stroke-linecap="round" stroke-linejoin="round"/>
            <path opacity="0.56" d="M266.978 -69.5757L377.988 40.9984" stroke="white" stroke-width="5.81969" stroke-miterlimit="10" stroke-linecap="round" stroke-linejoin="round"/>
            <path d="M670.719 -69.5757L781.875 40.9984" stroke="white" stroke-width="5.81969" stroke-miterlimit="10" stroke-linecap="round" stroke-linejoin="round"/>
            <path opacity="0.56" d="M3.05371 368.793L50.0477 322.09L144.181 416.951L308.151 250.944L260.575 204.823L166.878 298.52" stroke="white" stroke-width="5.81969" stroke-miterlimit="10" stroke-linecap="round" stroke-linejoin="round"/>
            <path opacity="0.56" d="M2.90918 415.641L50.0487 368.938L96.8972 415.932L73.182 439.065L49.6122 415.496L2.90918 462.49" stroke="white" stroke-width="5.81969" stroke-miterlimit="10" stroke-linecap="round" stroke-linejoin="round"/>
            <path d="M726.006 634.753L773 588.05L819.994 635.044L796.279 658.177L772.709 634.607L726.006 681.601" stroke="white" stroke-width="5.81969" stroke-miterlimit="10" stroke-linecap="round" stroke-linejoin="round"/>
            <path opacity="0.56" d="M307.279 639.408L354.419 592.705L401.413 639.699L377.552 662.833L354.128 639.263L307.279 686.257" stroke="white" stroke-width="5.81969" stroke-miterlimit="10" stroke-linecap="round" stroke-linejoin="round"/>
            <path opacity="0.56" d="M190.303 322.817L260.576 251.671" stroke="white" stroke-width="5.81969" stroke-miterlimit="10" stroke-linecap="round" stroke-linejoin="round"/>
            <path opacity="0.56" d="M49.6113 228.247L3.05371 275.096" stroke="white" stroke-width="5.81969" stroke-miterlimit="10" stroke-linecap="round" stroke-linejoin="round"/>
            <path opacity="0.56" d="M360.965 -69.5757L448.115 17.2832" stroke="white" stroke-width="5.81969" stroke-miterlimit="10" stroke-linecap="round" stroke-linejoin="round"/>
            <path opacity="0.56" d="M3.05371 509.484L49.9022 462.635L73.3265 486.059L120.03 439.065L143.454 462.49L3.05371 603.181" stroke="white" stroke-width="5.81969" stroke-miterlimit="10" stroke-linecap="round" stroke-linejoin="round"/>
            <path opacity="0.56" d="M166.878 439.065L237.442 509.629L213.727 532.763L166.878 485.914L3.05371 650.029" stroke="white" stroke-width="5.81969" stroke-miterlimit="10" stroke-linecap="round" stroke-linejoin="round"/>
            <path opacity="0.56" d="M120.176 579.757L166.879 532.763L260.43 626.314L219.838 668.07" stroke="white" stroke-width="5.81969" stroke-miterlimit="10" stroke-linecap="round" stroke-linejoin="round"/>
            <path opacity="0.56" d="M214.018 626.314L166.878 579.611L120.175 627.333L96.8964 603.617L32.1523 668.07" stroke="white" stroke-width="5.81969" stroke-miterlimit="10" stroke-linecap="round" stroke-linejoin="round"/>
            <path d="M1117.09 276.696L976.835 416.951L953.12 393.817L1046.82 300.12L976.253 229.848L952.683 253.126L999.968 300.12L765.726 534.363L899.724 668.07" stroke="white" stroke-width="5.81969" stroke-miterlimit="10" stroke-linecap="round" stroke-linejoin="round"/>
            <path d="M1117.09 604.636L1023.39 510.939L952.538 580.775L976.544 604.636L1023.39 557.787L1070.24 604.636L1005.93 668.07" stroke="white" stroke-width="5.81969" stroke-miterlimit="10" stroke-linecap="round" stroke-linejoin="round"/>
            <path d="M988.765 663.851L859.423 534.363L906.271 487.514L882.701 463.945L811.847 533.781L945.699 668.07" stroke="white" stroke-width="5.81969" stroke-miterlimit="10" stroke-linecap="round" stroke-linejoin="round"/>
            <path d="M1117.09 510.939L1023.1 416.951L1046.82 393.817L1070.1 417.387L1117.09 370.248" stroke="white" stroke-width="5.81969" stroke-miterlimit="10" stroke-linecap="round" stroke-linejoin="round"/>
            <path d="M1117.09 557.787L1023.1 463.945L929.695 557.787L906.271 534.363L976.398 463.945L929.549 416.951L906.125 440.52L929.549 463.945" stroke="white" stroke-width="5.81969" stroke-miterlimit="10" stroke-linecap="round" stroke-linejoin="round"/>
            <path d="M1117.09 229.702L1070.1 276.405L975.816 181.69L811.847 347.551L859.423 393.817L953.12 300.12" stroke="white" stroke-width="5.81969" stroke-miterlimit="10" stroke-linecap="round" stroke-linejoin="round"/>
            <path d="M1117.09 182.999L1070.1 229.556L1023.1 182.562L1046.82 159.575L1070.39 183.144L1117.09 136.15" stroke="white" stroke-width="5.81969" stroke-miterlimit="10" stroke-linecap="round" stroke-linejoin="round"/>
            <path d="M1070.39 370.248L1117.09 323.399" stroke="white" stroke-width="5.81969" stroke-miterlimit="10" stroke-linecap="round" stroke-linejoin="round"/>
            <path d="M1117.09 89.1564L1070.1 135.859L1046.67 112.581L999.968 159.575L976.544 136.15L1117.09 -4.54065" stroke="white" stroke-width="5.81969" stroke-miterlimit="10" stroke-linecap="round" stroke-linejoin="round"/>
            <path d="M953.119 159.575L882.556 89.0109L906.271 65.7322L953.119 112.726L1117.09 -51.3892" stroke="white" stroke-width="5.81969" stroke-miterlimit="10" stroke-linecap="round" stroke-linejoin="round"/>
            <path d="M999.822 18.7381L953.119 65.7321L859.567 -27.6739L900.16 -69.5757" stroke="white" stroke-width="5.81969" stroke-miterlimit="10" stroke-linecap="round" stroke-linejoin="round"/>
            <path d="M905.98 -27.6739L953.12 18.8836L999.823 -28.8379L1023.1 -4.97712L1087.85 -69.5757" stroke="white" stroke-width="5.81969" stroke-miterlimit="10" stroke-linecap="round" stroke-linejoin="round"/>
            <path opacity="0.56" d="M237.588 556.623L285.164 604.054L354.709 532.763" stroke="white" stroke-width="5.81969" stroke-miterlimit="10" stroke-linecap="round" stroke-linejoin="round"/>
        </g>
    </g>
    <defs>
        <linearGradient id="paint0_linear_772_3919" x1="1.08896" y1="1.72752" x2="1160.62" y2="86.7525" gradientUnits="userSpaceOnUse">
            <stop stop-color="#244DE1"/>
            <stop offset="1" stop-color="#99DEFF"/>
        </linearGradient>
        <linearGradient id="paint1_linear_772_3919" x1="1.08896" y1="1.72752" x2="1160.62" y2="86.7525" gradientUnits="userSpaceOnUse">
            <stop stop-color="#244DE1"/>
            <stop offset="1" stop-color="#99DEFF"/>
        </linearGradient>
    </defs>
</svg>
