<?xml version="1.0" standalone="no"?>
<!DOCTYPE svg PUBLIC "-//W3C//DTD SVG 20010904//EN"
 "http://www.w3.org/TR/2001/REC-SVG-20010904/DTD/svg10.dtd">
<svg version="1.0" xmlns="http://www.w3.org/2000/svg"
 width="512.000000pt" height="512.000000pt" viewBox="0 0 512.000000 512.000000"
 preserveAspectRatio="xMidYMid meet">
<metadata>
Created by potrace 1.14, written by Peter Selinger 2001-2017
</metadata>
<g transform="translate(0.000000,512.000000) scale(0.100000,-0.100000)"
fill="#000000" stroke="none">
<path d="M1617 4794 c-1 -1 -24 -5 -51 -8 -147 -20 -308 -108 -411 -226 -249
-285 -503 -445 -817 -516 -45 -10 -56 -12 -108 -20 -67 -9 -98 -12 -173 -13
l-58 -1 6 -42 c41 -284 202 -501 485 -655 82 -44 241 -101 335 -119 182 -35
330 -44 500 -30 146 11 228 28 366 72 340 109 592 331 677 595 33 104 41 158
38 274 -3 127 -29 220 -90 330 -91 162 -280 305 -451 340 -22 5 -47 10 -55 12
-17 4 -189 11 -193 7z"/>
<path d="M3368 4795 c-2 -2 -23 -5 -48 -9 -155 -20 -284 -87 -407 -211 -90
-91 -145 -188 -181 -320 -23 -85 -26 -235 -6 -331 66 -312 321 -563 700 -688
87 -29 93 -30 209 -51 251 -45 515 -34 745 30 195 55 351 139 478 259 142 134
231 305 257 494 l6 42 -63 1 c-35 1 -72 3 -83 4 -29 3 -139 18 -145 20 -3 1
-25 5 -50 9 -102 18 -279 88 -410 163 -120 68 -215 151 -419 366 -136 142
-294 214 -491 221 -49 2 -91 2 -92 1z"/>
<path d="M2529 3483 c-68 -109 -210 -251 -343 -340 -150 -101 -365 -193 -556
-236 -233 -54 -551 -65 -755 -27 -27 5 -66 12 -85 15 -135 22 -350 100 -482
176 -36 22 -68 39 -71 39 -10 0 0 -539 12 -597 53 -272 227 -515 465 -648 71
-39 210 -91 272 -101 21 -3 40 -7 42 -9 2 -2 10 -31 18 -65 76 -329 339 -595
664 -673 l90 -22 11 -40 c55 -203 180 -366 359 -467 54 -30 369 -158 391 -158
14 0 200 72 286 111 23 10 45 19 48 19 4 0 37 18 73 39 163 96 295 273 342
459 7 28 16 42 28 43 25 1 43 5 107 24 236 68 442 239 553 460 34 66 79 193
85 240 3 27 8 31 58 41 367 77 658 374 730 747 13 66 21 597 10 597 -4 0 -11
-4 -17 -9 -21 -22 -224 -116 -313 -146 -100 -34 -250 -69 -336 -79 -27 -3 -70
-8 -95 -12 -54 -6 -296 -6 -365 1 -447 43 -826 220 -1069 496 -32 37 -72 88
-88 113 -17 25 -34 46 -38 46 -5 0 -19 -17 -31 -37z"/>
</g>
</svg>
