<svg width="66" height="66" viewBox="0 0 66 66" fill="none"
    xmlns="http://www.w3.org/2000/svg">
    <path d="M17.5273 27.6643L20.7554 15.606C21.1216 14.2394 22.0166 13.0747 23.2429 12.369C24.4691 11.6633 25.9258 11.4745 27.2914 11.8444L53.0621 18.754C54.4287 19.1202 55.5934 20.0152 56.2991 21.2415C57.0049 22.4677 57.1936 23.9244 56.8237 25.29L52.6887 40.7364C51.9528 43.5164 49.1393 45.2069 46.3393 44.5514" stroke="#4069FF" stroke-width="3" stroke-linecap="round" stroke-linejoin="round"/>
    <path fill-rule="evenodd" clip-rule="evenodd" d="M46.3391 49.0065V32.9999C46.3395 31.5847 45.7775 30.2273 44.7768 29.2266C43.7761 28.2259 42.4188 27.6639 41.0036 27.6643H14.3258C12.9106 27.6639 11.5532 28.2259 10.5526 29.2266C9.55186 30.2273 8.98985 31.5847 8.99023 32.9999V49.0065C8.98985 50.4217 9.55186 51.7791 10.5526 52.7798C11.5532 53.7805 12.9106 54.3425 14.3258 54.3421H41.0036C43.9503 54.3421 46.3391 51.9532 46.3391 49.0065Z" stroke="#161B2C" stroke-width="3" stroke-linecap="round" stroke-linejoin="round"/>
    <path d="M8.99023 38.5463H46.3391" stroke="#161B2C" stroke-width="3" stroke-linecap="round" stroke-linejoin="round"/>
</svg>
