<svg width="24" height="24" viewBox="0 0 24 24" fill="none"
    xmlns="http://www.w3.org/2000/svg">
    <path d="M13.0001 6L13 6.5" stroke="#161B2C" stroke-width="1.5" stroke-linecap="round" stroke-linejoin="round"/>
    <path d="M13.0001 11.5L13 12" stroke="#161B2C" stroke-width="1.5" stroke-linecap="round" stroke-linejoin="round"/>
    <path d="M15.5981 7.50004L15.1651 7.74996" stroke="#161B2C" stroke-width="1.5" stroke-linecap="round" stroke-linejoin="round"/>
    <path d="M10.8349 10.25L10.4019 10.5" stroke="#161B2C" stroke-width="1.5" stroke-linecap="round" stroke-linejoin="round"/>
    <path d="M10.4019 7.50004L10.8349 7.74996" stroke="#161B2C" stroke-width="1.5" stroke-linecap="round" stroke-linejoin="round"/>
    <path d="M15.1651 10.25L15.5981 10.5" stroke="#161B2C" stroke-width="1.5" stroke-linecap="round" stroke-linejoin="round"/>
    <path d="M6 9C6 5.41015 8.91015 2.5 12.5 2.5" stroke="#161B2C" stroke-width="1.5" stroke-linecap="round" stroke-linejoin="round"/>
    <path d="M12 15V15.8318C12 16.6927 11.4491 17.457 10.6325 17.7292L8.63246 18.3959C8.02256 18.5992 7.35212 18.4969 6.83058 18.121C6.30904 17.7451 6 17.1414 6 16.4985V14.7295" stroke="#161B2C" stroke-width="1.5" stroke-linecap="round" stroke-linejoin="round"/>
    <path d="M10.2114 17.8659L9.43878 20.1838C9.33713 20.4887 9.38826 20.8239 9.57622 21.0847C9.76417 21.3455 10.066 21.5 10.3875 21.5H17.6126C17.9341 21.5 18.2359 21.3455 18.4239 21.0847C18.6118 20.8239 18.6629 20.4887 18.5613 20.1838L18.2952 19.3855C17.4732 16.9193 17.7698 14.2171 19.1073 11.988V11.988C19.6914 11.0143 20 9.90021 20 8.76476V8.76476C20 7.10324 19.34 5.50978 18.1651 4.33491C16.9903 3.16004 15.3968 2.5 13.7353 2.5H12.5" stroke="#161B2C" stroke-width="1.5" stroke-linecap="round" stroke-linejoin="round"/>
    <path d="M6.00003 14.7294L4.55423 14.0066C4.29764 13.879 4.10826 13.6473 4.0343 13.3705C3.96035 13.0937 4.00896 12.7984 4.16775 12.5599L6.00003 9.81152V9" stroke="#161B2C" stroke-width="1.5" stroke-linecap="round" stroke-linejoin="round"/>
</svg>
