<svg width="64" height="64" viewBox="0 0 64 64" fill="none"
    xmlns="http://www.w3.org/2000/svg">
    <path fill-rule="evenodd" clip-rule="evenodd" d="M18.5167 50.6667H13.482C11.9273 50.6667 10.666 49.4054 10.666 47.8507V28.1494C10.666 26.5947 11.9273 25.3334 13.482 25.3334H18.5167C20.0713 25.3334 21.3327 26.5947 21.3327 28.1494V47.8507C21.3327 49.4054 20.0713 50.6667 18.5167 50.6667V50.6667Z" stroke="#4069FF" stroke-width="3" stroke-linecap="round" stroke-linejoin="round"/>
    <path fill-rule="evenodd" clip-rule="evenodd" d="M21.334 28.1918L31.0647 15.5225C32.8753 13.1625 36.4113 13.1038 38.302 15.3998C39.0087 16.2558 39.3927 17.3331 39.3927 18.4425V27.1651H47.6487C49.2513 27.1651 50.7473 27.9651 51.638 29.2958L52.5153 30.6051C53.302 31.7811 53.5313 33.2451 53.1393 34.6025L49.5153 47.1945C48.9233 49.2505 47.0433 50.6665 44.9047 50.6665H28.134C26.8007 50.6665 25.526 50.1118 24.6193 49.1358L21.334 45.5998" stroke="#161B2C" stroke-width="3" stroke-linecap="round" stroke-linejoin="round"/>
</svg>
