<svg width="66" height="66" viewBox="0 0 66 66" fill="none"
    xmlns="http://www.w3.org/2000/svg">
    <path d="M35.668 24.9966H46.3391" stroke="#161B2C" stroke-width="3" stroke-linecap="round" stroke-linejoin="round"/>
    <path d="M19.6602 24.2655L22.1118 26.4744L27.0472 22.0299" stroke="#161B2C" stroke-width="3" stroke-linecap="round" stroke-linejoin="round"/>
    <path d="M27.6647 54.3423H22.3291C14.9623 54.3423 8.99023 48.3702 8.99023 41.0034V19.6612C8.99023 12.2943 14.9623 6.32227 22.3291 6.32227H43.6713C47.209 6.32227 50.6018 7.72761 53.1034 10.2291C55.6049 12.7307 57.0102 16.1235 57.0102 19.6612V27.6645" stroke="#161B2C" stroke-width="3" stroke-linecap="round" stroke-linejoin="round"/>
    <path d="M19.6602 37.6044L22.1118 39.8133L27.0472 35.3688" stroke="#161B2C" stroke-width="3" stroke-linecap="round" stroke-linejoin="round"/>
    <path d="M38.3359 38.0684V53.2758C38.3386 55.3377 42.5158 57.0101 47.6718 57.0101C52.8279 57.0101 57.005 55.3377 57.0077 53.2758V38.0684" stroke="#4069FF" stroke-width="3" stroke-linecap="round" stroke-linejoin="round"/>
    <path d="M38.3379 45.6719C38.3379 47.7338 42.5177 49.4062 47.6737 49.4062C52.8298 49.4062 57.0096 47.7338 57.0096 45.6719" stroke="#4069FF" stroke-width="3" stroke-linecap="round" stroke-linejoin="round"/>
    <path d="M38.3386 38.0683C38.3386 40.1302 42.5184 41.8027 47.6745 41.8027C52.8306 41.8027 57.0077 40.1302 57.0077 38.0683C57.0077 36.0038 52.8252 34.334 47.6718 34.334C42.5184 34.334 38.3386 36.0064 38.3359 38.0683" stroke="#4069FF" stroke-width="3" stroke-linecap="round" stroke-linejoin="round"/>
</svg>
