<svg width="25" height="24" viewBox="0 0 25 24" fill="none"
    xmlns="http://www.w3.org/2000/svg">
    <path d="M12.5 13V10" stroke="white" stroke-width="1.5" stroke-linecap="round" stroke-linejoin="round"/>
    <path d="M12.5 5V3" stroke="white" stroke-width="1.5" stroke-linecap="round" stroke-linejoin="round"/>
    <path fill-rule="evenodd" clip-rule="evenodd" d="M7 5H17.685C17.974 5 18.248 5.125 18.438 5.342L19.755 6.851C20.08 7.223 20.08 7.777 19.755 8.149L18.438 9.658C18.248 9.875 17.974 10 17.685 10H7C6.448 10 6 9.552 6 9V6C6 5.448 6.448 5 7 5Z" stroke="white" stroke-width="1.5" stroke-linecap="round" stroke-linejoin="round"/>
    <path fill-rule="evenodd" clip-rule="evenodd" d="M17.999 18H7.314C7.025 18 6.751 17.875 6.561 17.658L5.244 16.149C4.919 15.777 4.919 15.223 5.244 14.851L6.561 13.342C6.75 13.125 7.025 13 7.314 13H17.999C18.551 13 18.999 13.448 18.999 14V17C18.999 17.552 18.551 18 17.999 18Z" stroke="white" stroke-width="1.5" stroke-linecap="round" stroke-linejoin="round"/>
    <path d="M12.5 21V18" stroke="white" stroke-width="1.5" stroke-linecap="round" stroke-linejoin="round"/>
</svg>
